<svg xmlns="http://www.w3.org/2000/svg" xmlns:xlink="http://www.w3.org/1999/xlink" width="500" zoomAndPan="magnify" viewBox="0 0 375 374.999991" height="500" preserveAspectRatio="xMidYMid meet" version="1.0"><defs><g/><clipPath id="8629a2fd98"><path d="M 51.363281 130 L 112.863281 130 L 112.863281 165 L 51.363281 165 Z M 51.363281 130 " clip-rule="nonzero"/></clipPath></defs><g clip-path="url(#8629a2fd98)"><path fill="#d40c0c" d="M 80.574219 158.714844 L 82.816406 161.15625 C 77.152344 166.289062 68.367188 165.898438 63.1875 160.261719 L 51.363281 147.390625 L 61.644531 137.976562 C 67.304688 132.777344 76.140625 133.148438 81.34375 138.808594 L 86.027344 143.90625 L 83.585938 146.148438 L 78.902344 141.050781 C 74.9375 136.738281 68.203125 136.453125 63.886719 140.417969 L 56.136719 147.542969 C 56.09375 147.578125 56.09375 147.640625 56.128906 147.679688 L 65.628906 158.019531 C 69.574219 162.308594 76.253906 162.613281 80.574219 158.714844 Z M 90.714844 149 L 86.03125 143.90625 L 83.589844 146.148438 L 88.273438 151.242188 C 90.855469 154.054688 95.242188 154.238281 98.050781 151.65625 L 103.148438 146.972656 L 96.089844 139.292969 C 93.53125 136.507812 89.199219 136.304688 86.382812 138.816406 L 88.628906 141.257812 C 90.09375 139.980469 92.328125 140.09375 93.648438 141.535156 L 98.398438 146.703125 C 98.4375 146.742188 98.433594 146.804688 98.394531 146.84375 L 95.808594 149.21875 C 94.347656 150.5625 92.058594 150.464844 90.714844 149 Z M 101.257812 134.542969 C 96.078125 128.90625 87.296875 128.515625 81.632812 133.648438 L 83.875 136.089844 C 88.191406 132.191406 94.875 132.496094 98.816406 136.785156 L 108.320312 147.125 C 108.355469 147.164062 108.351562 147.226562 108.3125 147.261719 L 100.558594 154.386719 C 96.246094 158.351562 89.511719 158.066406 85.542969 153.753906 L 76.175781 143.558594 C 73.59375 140.75 69.207031 140.5625 66.394531 143.144531 L 61.300781 147.828125 L 68.359375 155.511719 C 70.917969 158.296875 75.25 158.5 78.0625 155.984375 L 75.820312 153.542969 C 74.355469 154.820312 72.121094 154.707031 70.800781 153.265625 L 66.050781 148.097656 C 66.015625 148.058594 66.015625 147.996094 66.054688 147.960938 L 68.640625 145.585938 C 70.105469 144.238281 72.390625 144.335938 73.738281 145.800781 L 78.421875 150.898438 L 79.335938 150.054688 L 78.421875 150.898438 L 83.105469 155.996094 C 88.308594 161.65625 97.144531 162.027344 102.804688 156.828125 L 113.085938 147.414062 Z M 101.257812 134.542969 " fill-opacity="1" fill-rule="nonzero"/></g><g fill="#545454" fill-opacity="1"><g transform="translate(124.871597, 157.459041)"><g><path d="M 1.359375 -12.15625 C 1.359375 -13.882812 1.671875 -15.5 2.296875 -17 C 2.929688 -18.507812 3.773438 -19.820312 4.828125 -20.9375 C 5.898438 -22.03125 7.191406 -22.925781 8.703125 -23.625 C 10.210938 -24.320312 11.796875 -24.671875 13.453125 -24.671875 C 15.316406 -24.671875 17.023438 -24.289062 18.578125 -23.53125 C 20.128906 -22.78125 21.445312 -21.722656 22.53125 -20.359375 C 23.613281 -18.992188 24.390625 -17.390625 24.859375 -15.546875 L 21.359375 -15.546875 C 20.703125 -17.390625 19.664062 -18.789062 18.25 -19.75 C 16.84375 -20.707031 15.242188 -21.1875 13.453125 -21.1875 C 12.285156 -21.1875 11.15625 -20.929688 10.0625 -20.421875 C 8.96875 -19.921875 8.035156 -19.265625 7.265625 -18.453125 C 6.492188 -17.660156 5.882812 -16.726562 5.4375 -15.65625 C 5 -14.582031 4.78125 -13.414062 4.78125 -12.15625 C 4.78125 -10.945312 4.992188 -9.804688 5.421875 -8.734375 C 5.859375 -7.660156 6.460938 -6.71875 7.234375 -5.90625 C 8.003906 -5.113281 8.941406 -4.484375 10.046875 -4.015625 C 11.148438 -3.554688 12.285156 -3.328125 13.453125 -3.328125 C 15.316406 -3.328125 16.976562 -3.835938 18.4375 -4.859375 C 19.894531 -5.878906 20.9375 -7.3125 21.5625 -9.15625 L 25.03125 -9.15625 C 24.5625 -7.3125 23.78125 -5.6875 22.6875 -4.28125 C 21.59375 -2.875 20.257812 -1.78125 18.6875 -1 C 17.113281 -0.21875 15.367188 0.171875 13.453125 0.171875 C 11.796875 0.171875 10.226562 -0.144531 8.75 -0.78125 C 7.269531 -1.425781 5.992188 -2.304688 4.921875 -3.421875 C 3.878906 -4.546875 3.023438 -5.859375 2.359375 -7.359375 C 1.691406 -8.859375 1.359375 -10.457031 1.359375 -12.15625 Z M 1.359375 -12.15625 "/></g></g></g><g fill="#545454" fill-opacity="1"><g transform="translate(151.229216, 157.459041)"><g><path d="M 22.1875 -9.4375 C 22.1875 -7.800781 21.898438 -6.375 21.328125 -5.15625 C 20.765625 -3.9375 19.992188 -2.914062 19.015625 -2.09375 C 18.035156 -1.28125 16.929688 -0.671875 15.703125 -0.265625 C 14.484375 0.140625 13.234375 0.34375 11.953125 0.34375 C 10.691406 0.34375 9.457031 0.140625 8.25 -0.265625 C 7.039062 -0.671875 5.953125 -1.28125 4.984375 -2.09375 C 4.015625 -2.914062 3.242188 -3.9375 2.671875 -5.15625 C 2.097656 -6.375 1.8125 -7.800781 1.8125 -9.4375 C 1.8125 -11.070312 2.097656 -12.5 2.671875 -13.71875 C 3.242188 -14.9375 4.019531 -15.953125 5 -16.765625 C 5.976562 -17.585938 7.078125 -18.203125 8.296875 -18.609375 C 9.523438 -19.015625 10.78125 -19.21875 12.0625 -19.21875 C 13.34375 -19.21875 14.582031 -19.015625 15.78125 -18.609375 C 16.976562 -18.203125 18.0625 -17.585938 19.03125 -16.765625 C 20 -15.953125 20.765625 -14.9375 21.328125 -13.71875 C 21.898438 -12.5 22.1875 -11.070312 22.1875 -9.4375 Z M 5.25 -9.4375 C 5.25 -7.945312 5.578125 -6.707031 6.234375 -5.71875 C 6.898438 -4.726562 7.75 -3.976562 8.78125 -3.46875 C 9.820312 -2.96875 10.90625 -2.71875 12.03125 -2.71875 C 13.164062 -2.71875 14.242188 -2.96875 15.265625 -3.46875 C 16.296875 -3.976562 17.144531 -4.734375 17.8125 -5.734375 C 18.476562 -6.734375 18.8125 -7.96875 18.8125 -9.4375 C 18.8125 -10.925781 18.484375 -12.171875 17.828125 -13.171875 C 17.171875 -14.179688 16.320312 -14.9375 15.28125 -15.4375 C 14.25 -15.9375 13.175781 -16.1875 12.0625 -16.1875 C 10.914062 -16.1875 9.820312 -15.9375 8.78125 -15.4375 C 7.75 -14.9375 6.898438 -14.1875 6.234375 -13.1875 C 5.578125 -12.195312 5.25 -10.945312 5.25 -9.4375 Z M 5.25 -9.4375 "/></g></g></g><g fill="#545454" fill-opacity="1"><g transform="translate(175.489407, 157.459041)"><g><path d="M 21.21875 -24.46875 L 21.21875 0 L 17.796875 0 L 17.796875 -2.546875 C 17.117188 -1.523438 16.191406 -0.796875 15.015625 -0.359375 C 13.835938 0.0664062 12.65625 0.289062 11.46875 0.3125 C 9.269531 0.3125 7.421875 -0.113281 5.921875 -0.96875 C 4.421875 -1.832031 3.289062 -3.007812 2.53125 -4.5 C 1.769531 -6 1.390625 -7.679688 1.390625 -9.546875 C 1.390625 -11.359375 1.78125 -12.992188 2.5625 -14.453125 C 3.34375 -15.910156 4.484375 -17.066406 5.984375 -17.921875 C 7.492188 -18.785156 9.304688 -19.21875 11.421875 -19.21875 C 12.585938 -19.21875 13.734375 -19.035156 14.859375 -18.671875 C 15.992188 -18.316406 16.972656 -17.582031 17.796875 -16.46875 L 17.796875 -24.46875 Z M 17.796875 -9.46875 C 17.796875 -10.988281 17.484375 -12.242188 16.859375 -13.234375 C 16.242188 -14.222656 15.453125 -14.96875 14.484375 -15.46875 C 13.515625 -15.96875 12.492188 -16.21875 11.421875 -16.21875 C 10.023438 -16.21875 8.835938 -15.890625 7.859375 -15.234375 C 6.878906 -14.585938 6.128906 -13.75 5.609375 -12.71875 C 5.085938 -11.695312 4.828125 -10.613281 4.828125 -9.46875 C 4.828125 -8.1875 5.082031 -7.03125 5.59375 -6 C 6.101562 -4.976562 6.851562 -4.175781 7.84375 -3.59375 C 8.832031 -3.007812 10.015625 -2.71875 11.390625 -2.71875 C 12.460938 -2.71875 13.488281 -2.960938 14.46875 -3.453125 C 15.445312 -3.941406 16.242188 -4.6875 16.859375 -5.6875 C 17.484375 -6.695312 17.796875 -7.957031 17.796875 -9.46875 Z M 17.796875 -9.46875 "/></g></g></g><g fill="#545454" fill-opacity="1"><g transform="translate(199.400027, 157.459041)"><g><path d="M 21.1875 -10.28125 C 21.207031 -10.1875 21.21875 -10.09375 21.21875 -10 C 21.21875 -9.90625 21.21875 -9.800781 21.21875 -9.6875 C 21.21875 -9.3125 21.179688 -8.960938 21.109375 -8.640625 L 5.109375 -8.640625 C 5.109375 -7.398438 5.4375 -6.335938 6.09375 -5.453125 C 6.757812 -4.566406 7.585938 -3.882812 8.578125 -3.40625 C 9.566406 -2.925781 10.53125 -2.6875 11.46875 -2.6875 C 12.632812 -2.6875 13.722656 -2.941406 14.734375 -3.453125 C 15.742188 -3.972656 16.53125 -4.769531 17.09375 -5.84375 L 20.625 -5.84375 C 20.15625 -4.46875 19.441406 -3.316406 18.484375 -2.390625 C 17.535156 -1.472656 16.445312 -0.785156 15.21875 -0.328125 C 14 0.117188 12.734375 0.34375 11.421875 0.34375 C 10.210938 0.34375 9.023438 0.140625 7.859375 -0.265625 C 6.691406 -0.671875 5.644531 -1.28125 4.71875 -2.09375 C 3.789062 -2.914062 3.050781 -3.9375 2.5 -5.15625 C 1.945312 -6.375 1.671875 -7.800781 1.671875 -9.4375 C 1.671875 -11.070312 1.945312 -12.492188 2.5 -13.703125 C 3.050781 -14.910156 3.789062 -15.921875 4.71875 -16.734375 C 5.644531 -17.554688 6.691406 -18.171875 7.859375 -18.578125 C 9.023438 -18.984375 10.238281 -19.1875 11.5 -19.1875 C 13.0625 -19.1875 14.554688 -18.851562 15.984375 -18.1875 C 17.421875 -17.53125 18.613281 -16.539062 19.5625 -15.21875 C 20.519531 -13.90625 21.0625 -12.257812 21.1875 -10.28125 Z M 17.578125 -11.46875 C 17.367188 -12.601562 16.957031 -13.515625 16.34375 -14.203125 C 15.726562 -14.890625 14.992188 -15.390625 14.140625 -15.703125 C 13.285156 -16.023438 12.40625 -16.1875 11.5 -16.1875 C 10.59375 -16.1875 9.703125 -16.023438 8.828125 -15.703125 C 7.953125 -15.390625 7.191406 -14.882812 6.546875 -14.1875 C 5.910156 -13.488281 5.476562 -12.582031 5.25 -11.46875 Z M 17.578125 -11.46875 "/></g></g></g><g fill="#545454" fill-opacity="1"><g transform="translate(222.471681, 157.459041)"><g><path d="M 3 0 L 3 -24.671875 L 17.578125 -24.671875 L 17.578125 -21.25 L 6.53125 -21.25 L 6.53125 -14.015625 L 16.328125 -14.015625 L 16.328125 -10.734375 L 6.53125 -10.734375 L 6.53125 0 Z M 3 0 "/></g></g></g><g fill="#545454" fill-opacity="1"><g transform="translate(240.824135, 157.459041)"><g><path d="M 2.625 0 L 2.625 -24.46875 L 6.046875 -24.46875 L 6.046875 0 Z M 2.625 0 "/></g></g></g><g fill="#545454" fill-opacity="1"><g transform="translate(249.49348, 157.459041)"><g><path d="M 22.1875 -9.4375 C 22.1875 -7.800781 21.898438 -6.375 21.328125 -5.15625 C 20.765625 -3.9375 19.992188 -2.914062 19.015625 -2.09375 C 18.035156 -1.28125 16.929688 -0.671875 15.703125 -0.265625 C 14.484375 0.140625 13.234375 0.34375 11.953125 0.34375 C 10.691406 0.34375 9.457031 0.140625 8.25 -0.265625 C 7.039062 -0.671875 5.953125 -1.28125 4.984375 -2.09375 C 4.015625 -2.914062 3.242188 -3.9375 2.671875 -5.15625 C 2.097656 -6.375 1.8125 -7.800781 1.8125 -9.4375 C 1.8125 -11.070312 2.097656 -12.5 2.671875 -13.71875 C 3.242188 -14.9375 4.019531 -15.953125 5 -16.765625 C 5.976562 -17.585938 7.078125 -18.203125 8.296875 -18.609375 C 9.523438 -19.015625 10.78125 -19.21875 12.0625 -19.21875 C 13.34375 -19.21875 14.582031 -19.015625 15.78125 -18.609375 C 16.976562 -18.203125 18.0625 -17.585938 19.03125 -16.765625 C 20 -15.953125 20.765625 -14.9375 21.328125 -13.71875 C 21.898438 -12.5 22.1875 -11.070312 22.1875 -9.4375 Z M 5.25 -9.4375 C 5.25 -7.945312 5.578125 -6.707031 6.234375 -5.71875 C 6.898438 -4.726562 7.75 -3.976562 8.78125 -3.46875 C 9.820312 -2.96875 10.90625 -2.71875 12.03125 -2.71875 C 13.164062 -2.71875 14.242188 -2.96875 15.265625 -3.46875 C 16.296875 -3.976562 17.144531 -4.734375 17.8125 -5.734375 C 18.476562 -6.734375 18.8125 -7.96875 18.8125 -9.4375 C 18.8125 -10.925781 18.484375 -12.171875 17.828125 -13.171875 C 17.171875 -14.179688 16.320312 -14.9375 15.28125 -15.4375 C 14.25 -15.9375 13.175781 -16.1875 12.0625 -16.1875 C 10.914062 -16.1875 9.820312 -15.9375 8.78125 -15.4375 C 7.75 -14.9375 6.898438 -14.1875 6.234375 -13.1875 C 5.578125 -12.195312 5.25 -10.945312 5.25 -9.4375 Z M 5.25 -9.4375 "/></g></g></g><g fill="#545454" fill-opacity="1"><g transform="translate(273.753671, 157.459041)"><g><path d="M 6.15625 -13.734375 L 8.421875 -5.625 L 12.203125 -18.90625 L 15.234375 -18.90625 L 19.046875 -5.625 L 21.28125 -13.734375 L 22.890625 -18.90625 L 26.5 -18.90625 L 20.3125 0.140625 L 17.6875 0.140625 L 15.375 -7.265625 L 13.734375 -12.96875 L 12.09375 -7.265625 L 9.75 0.140625 L 7.171875 0.140625 L 0.984375 -18.90625 L 4.578125 -18.90625 Z M 6.15625 -13.734375 "/></g></g></g></svg>