<svg xmlns="http://www.w3.org/2000/svg" xmlns:xlink="http://www.w3.org/1999/xlink" width="500" zoomAndPan="magnify" viewBox="0 0 375 374.999991" height="500" preserveAspectRatio="xMidYMid meet" version="1.0"><defs><g/><clipPath id="34f1005eea"><path d="M 99.058594 137 L 276 137 L 276 238 L 99.058594 238 Z M 99.058594 137 " clip-rule="nonzero"/></clipPath></defs><g clip-path="url(#34f1005eea)"><path fill="#d40c0c" d="M 182.761719 219.902344 L 189.1875 226.898438 C 172.964844 241.605469 147.792969 240.484375 132.949219 224.332031 L 99.058594 187.453125 L 128.527344 160.476562 C 144.746094 145.570312 170.066406 146.636719 184.976562 162.859375 L 198.398438 177.464844 L 191.402344 183.890625 L 177.980469 169.285156 C 166.617188 156.921875 147.316406 156.109375 134.953125 167.46875 L 112.738281 187.886719 C 112.621094 187.988281 112.613281 188.167969 112.71875 188.28125 L 139.941406 217.902344 C 151.242188 230.195312 170.390625 231.066406 182.761719 219.902344 Z M 211.824219 192.066406 L 198.402344 177.460938 L 191.40625 183.886719 L 204.828125 198.492188 C 212.230469 206.546875 224.800781 207.074219 232.855469 199.675781 L 247.460938 186.253906 L 227.230469 164.242188 C 219.894531 156.261719 207.480469 155.679688 199.417969 162.882812 L 205.847656 169.878906 C 210.050781 166.21875 216.445312 166.542969 220.238281 170.671875 L 233.847656 185.480469 C 233.953125 185.597656 233.945312 185.773438 233.835938 185.878906 L 226.429688 192.683594 C 222.234375 196.539062 215.679688 196.261719 211.824219 192.066406 Z M 242.042969 150.632812 C 227.203125 134.480469 202.03125 133.359375 185.804688 148.070312 L 192.230469 155.066406 C 204.601562 143.898438 223.75 144.769531 235.046875 157.0625 L 262.273438 186.683594 C 262.375 186.796875 262.367188 186.976562 262.253906 187.078125 L 240.039062 207.496094 C 227.675781 218.859375 208.375 218.042969 197.011719 205.679688 L 170.167969 176.46875 C 162.765625 168.417969 150.195312 167.886719 142.140625 175.285156 L 127.535156 188.707031 L 147.761719 210.71875 C 155.097656 218.703125 167.515625 219.285156 175.574219 212.082031 L 169.148438 205.085938 C 164.945312 208.742188 158.550781 208.417969 154.757812 204.289062 L 141.148438 189.480469 C 141.042969 189.367188 141.050781 189.1875 141.167969 189.085938 L 148.574219 182.277344 C 152.769531 178.417969 159.320312 178.695312 163.179688 182.894531 L 176.601562 197.5 L 179.222656 195.089844 L 176.601562 197.5 L 190.023438 212.105469 C 204.925781 228.324219 230.253906 229.394531 246.472656 214.488281 L 275.9375 187.511719 Z M 242.042969 150.632812 " fill-opacity="1" fill-rule="nonzero"/></g><g fill="#d40c0c" fill-opacity="1"><g transform="translate(137.177014, 233.804224)"><g><path d="M 11.375 -2.75 C 11.375 -3.207031 11.445312 -3.632812 11.59375 -4.03125 C 11.738281 -4.425781 11.945312 -4.773438 12.21875 -5.078125 C 12.488281 -5.378906 12.832031 -5.613281 13.25 -5.78125 C 13.664062 -5.945312 14.148438 -6.03125 14.703125 -6.03125 C 15.242188 -6.03125 15.722656 -5.945312 16.140625 -5.78125 C 16.566406 -5.613281 16.921875 -5.378906 17.203125 -5.078125 C 17.484375 -4.773438 17.695312 -4.425781 17.84375 -4.03125 C 17.988281 -3.632812 18.0625 -3.207031 18.0625 -2.75 C 18.0625 -2.3125 17.988281 -1.894531 17.84375 -1.5 C 17.695312 -1.113281 17.484375 -0.773438 17.203125 -0.484375 C 16.921875 -0.191406 16.566406 0.03125 16.140625 0.1875 C 15.722656 0.351562 15.242188 0.4375 14.703125 0.4375 C 14.148438 0.4375 13.664062 0.351562 13.25 0.1875 C 12.832031 0.03125 12.488281 -0.191406 12.21875 -0.484375 C 11.945312 -0.773438 11.738281 -1.113281 11.59375 -1.5 C 11.445312 -1.894531 11.375 -2.3125 11.375 -2.75 Z M 11.375 -2.75 "/></g></g></g></svg>