<svg xmlns="http://www.w3.org/2000/svg" xmlns:xlink="http://www.w3.org/1999/xlink" width="500" zoomAndPan="magnify" viewBox="0 0 375 374.999991" height="500" preserveAspectRatio="xMidYMid meet" version="1.0"><defs><g/><clipPath id="cd6df95ea3"><path d="M 99.058594 99 L 276 99 L 276 199 L 99.058594 199 Z M 99.058594 99 " clip-rule="nonzero"/></clipPath></defs><g clip-path="url(#cd6df95ea3)"><path fill="#d40c0c" d="M 182.761719 181.316406 L 189.1875 188.3125 C 172.964844 203.019531 147.792969 201.898438 132.949219 185.746094 L 99.058594 148.867188 L 128.527344 121.890625 C 144.746094 106.984375 170.066406 108.050781 184.976562 124.273438 L 198.398438 138.878906 L 191.402344 145.304688 L 177.980469 130.699219 C 166.617188 118.335938 147.316406 117.523438 134.953125 128.882812 L 112.738281 149.300781 C 112.621094 149.402344 112.613281 149.582031 112.71875 149.695312 L 139.941406 179.316406 C 151.242188 191.609375 170.390625 192.480469 182.761719 181.316406 Z M 211.824219 153.480469 L 198.402344 138.875 L 191.40625 145.300781 L 204.828125 159.90625 C 212.230469 167.960938 224.800781 168.488281 232.855469 161.089844 L 247.460938 147.667969 L 227.230469 125.65625 C 219.894531 117.675781 207.480469 117.09375 199.417969 124.296875 L 205.847656 131.292969 C 210.050781 127.632812 216.445312 127.957031 220.238281 132.085938 L 233.847656 146.894531 C 233.953125 147.011719 233.945312 147.1875 233.835938 147.292969 L 226.429688 154.097656 C 222.234375 157.953125 215.679688 157.675781 211.824219 153.480469 Z M 242.042969 112.046875 C 227.203125 95.894531 202.03125 94.773438 185.804688 109.484375 L 192.230469 116.480469 C 204.601562 105.3125 223.75 106.183594 235.046875 118.476562 L 262.273438 148.097656 C 262.375 148.214844 262.367188 148.390625 262.253906 148.496094 L 240.039062 168.910156 C 227.675781 180.273438 208.375 179.457031 197.011719 167.09375 L 170.167969 137.882812 C 162.765625 129.832031 150.195312 129.300781 142.140625 136.699219 L 127.535156 150.121094 L 147.761719 172.132812 C 155.097656 180.117188 167.515625 180.699219 175.574219 173.496094 L 169.148438 166.5 C 164.945312 170.15625 158.550781 169.832031 154.757812 165.703125 L 141.148438 150.894531 C 141.042969 150.78125 141.050781 150.601562 141.167969 150.5 L 148.574219 143.691406 C 152.769531 139.832031 159.320312 140.109375 163.179688 144.308594 L 176.601562 158.914062 L 179.222656 156.503906 L 176.601562 158.914062 L 190.023438 173.519531 C 204.925781 189.738281 230.253906 190.808594 246.472656 175.902344 L 275.9375 148.925781 Z M 242.042969 112.046875 " fill-opacity="1" fill-rule="nonzero"/></g><g fill="#737373" fill-opacity="1"><g transform="translate(46.644571, 263.859823)"><g><path d="M 23.484375 1.203125 C 19.046875 1.203125 15.203125 0.4375 11.953125 -1.09375 C 8.710938 -2.625 6.203125 -4.804688 4.421875 -7.640625 C 2.640625 -10.472656 1.75 -13.820312 1.75 -17.6875 C 1.75 -21.550781 2.582031 -24.890625 4.25 -27.703125 C 5.914062 -30.515625 8.269531 -32.691406 11.3125 -34.234375 C 14.363281 -35.785156 17.96875 -36.5625 22.125 -36.5625 C 25.1875 -36.5625 27.972656 -36.050781 30.484375 -35.03125 C 33.003906 -34.019531 35.117188 -32.582031 36.828125 -30.71875 C 38.546875 -28.851562 39.738281 -26.65625 40.40625 -24.125 L 34.375 -22.484375 C 33.738281 -25.140625 32.320312 -27.25 30.125 -28.8125 C 27.925781 -30.382812 25.296875 -31.171875 22.234375 -31.171875 C 19.398438 -31.171875 16.941406 -30.617188 14.859375 -29.515625 C 12.773438 -28.421875 11.164062 -26.863281 10.03125 -24.84375 C 8.90625 -22.832031 8.34375 -20.445312 8.34375 -17.6875 C 8.375 -14.957031 9.003906 -12.578125 10.234375 -10.546875 C 11.472656 -8.515625 13.234375 -6.945312 15.515625 -5.84375 C 17.796875 -4.75 20.46875 -4.203125 23.53125 -4.203125 C 25.925781 -4.203125 28.097656 -4.613281 30.046875 -5.4375 C 31.992188 -6.269531 33.613281 -7.441406 34.90625 -8.953125 C 36.207031 -10.472656 37.09375 -12.25 37.5625 -14.28125 L 43.703125 -13.03125 C 43.109375 -10.132812 41.878906 -7.617188 40.015625 -5.484375 C 38.148438 -3.359375 35.804688 -1.710938 32.984375 -0.546875 C 30.171875 0.617188 27.003906 1.203125 23.484375 1.203125 Z M 23.484375 1.203125 "/></g></g></g><g fill="#737373" fill-opacity="1"><g transform="translate(91.495076, 263.859823)"><g><path d="M 17.828125 0.953125 C 14.535156 0.953125 11.644531 0.382812 9.15625 -0.75 C 6.675781 -1.882812 4.753906 -3.472656 3.390625 -5.515625 C 2.023438 -7.566406 1.34375 -9.957031 1.34375 -12.6875 C 1.34375 -15.445312 2.023438 -17.851562 3.390625 -19.90625 C 4.753906 -21.957031 6.675781 -23.546875 9.15625 -24.671875 C 11.644531 -25.804688 14.535156 -26.375 17.828125 -26.375 C 21.160156 -26.375 24.066406 -25.804688 26.546875 -24.671875 C 29.023438 -23.546875 30.945312 -21.957031 32.3125 -19.90625 C 33.6875 -17.851562 34.375 -15.445312 34.375 -12.6875 C 34.375 -9.957031 33.6875 -7.566406 32.3125 -5.515625 C 30.945312 -3.472656 29.023438 -1.882812 26.546875 -0.75 C 24.066406 0.382812 21.160156 0.953125 17.828125 0.953125 Z M 17.828125 -3.703125 C 21.023438 -3.703125 23.582031 -4.515625 25.5 -6.140625 C 27.414062 -7.773438 28.375 -9.957031 28.375 -12.6875 C 28.375 -15.414062 27.414062 -17.597656 25.5 -19.234375 C 23.582031 -20.867188 21.023438 -21.6875 17.828125 -21.6875 C 14.628906 -21.6875 12.070312 -20.867188 10.15625 -19.234375 C 8.25 -17.597656 7.296875 -15.414062 7.296875 -12.6875 C 7.296875 -9.957031 8.25 -7.773438 10.15625 -6.140625 C 12.070312 -4.515625 14.628906 -3.703125 17.828125 -3.703125 Z M 17.828125 -3.703125 "/></g></g></g><g fill="#737373" fill-opacity="1"><g transform="translate(127.205665, 263.859823)"><g><path d="M 15.984375 0.90625 C 13.085938 0.90625 10.539062 0.332031 8.34375 -0.8125 C 6.144531 -1.96875 4.425781 -3.5625 3.1875 -5.59375 C 1.957031 -7.625 1.34375 -9.988281 1.34375 -12.6875 C 1.34375 -15.382812 1.957031 -17.753906 3.1875 -19.796875 C 4.425781 -21.847656 6.132812 -23.445312 8.3125 -24.59375 C 10.5 -25.75 13.039062 -26.328125 15.9375 -26.328125 C 18.664062 -26.328125 21.085938 -25.773438 23.203125 -24.671875 C 25.316406 -23.578125 26.890625 -22.046875 27.921875 -20.078125 L 27.96875 -20.078125 L 27.96875 -36.921875 L 34.015625 -36.921875 L 34.015625 0 L 28.828125 0 L 28.125 -5.34375 L 28.078125 -5.34375 C 27.046875 -3.414062 25.460938 -1.890625 23.328125 -0.765625 C 21.191406 0.347656 18.742188 0.90625 15.984375 0.90625 Z M 17.78125 -3.953125 C 19.84375 -3.953125 21.65625 -4.320312 23.21875 -5.0625 C 24.789062 -5.8125 26.015625 -6.84375 26.890625 -8.15625 C 27.773438 -9.476562 28.21875 -10.988281 28.21875 -12.6875 C 28.21875 -14.382812 27.773438 -15.890625 26.890625 -17.203125 C 26.015625 -18.523438 24.789062 -19.5625 23.21875 -20.3125 C 21.65625 -21.0625 19.84375 -21.4375 17.78125 -21.4375 C 15.71875 -21.4375 13.894531 -21.0625 12.3125 -20.3125 C 10.726562 -19.5625 9.492188 -18.523438 8.609375 -17.203125 C 7.734375 -15.890625 7.296875 -14.382812 7.296875 -12.6875 C 7.296875 -10.988281 7.734375 -9.476562 8.609375 -8.15625 C 9.492188 -6.84375 10.726562 -5.8125 12.3125 -5.0625 C 13.894531 -4.320312 15.71875 -3.953125 17.78125 -3.953125 Z M 17.78125 -3.953125 "/></g></g></g><g fill="#737373" fill-opacity="1"><g transform="translate(163.315817, 263.859823)"><g><path d="M 18.6875 0.953125 C 15.320312 0.953125 12.332031 0.363281 9.71875 -0.8125 C 7.101562 -2 5.050781 -3.632812 3.5625 -5.71875 C 2.082031 -7.800781 1.34375 -10.191406 1.34375 -12.890625 C 1.34375 -15.515625 2.023438 -17.84375 3.390625 -19.875 C 4.753906 -21.90625 6.632812 -23.492188 9.03125 -24.640625 C 11.4375 -25.796875 14.1875 -26.375 17.28125 -26.375 C 20.34375 -26.375 23.019531 -25.804688 25.3125 -24.671875 C 27.613281 -23.546875 29.414062 -21.984375 30.71875 -19.984375 C 32.019531 -17.984375 32.671875 -15.664062 32.671875 -13.03125 C 32.671875 -12.695312 32.648438 -12.332031 32.609375 -11.9375 C 32.578125 -11.539062 32.53125 -11.191406 32.46875 -10.890625 L 7.6875 -10.890625 C 7.925781 -9.421875 8.566406 -8.132812 9.609375 -7.03125 C 10.660156 -5.9375 12 -5.082031 13.625 -4.46875 C 15.257812 -3.851562 17.0625 -3.546875 19.03125 -3.546875 C 21.394531 -3.546875 23.625 -3.953125 25.71875 -4.765625 C 27.820312 -5.585938 29.390625 -6.613281 30.421875 -7.84375 L 33.5625 -4.890625 C 32.695312 -3.765625 31.5 -2.757812 29.96875 -1.875 C 28.4375 -0.988281 26.703125 -0.296875 24.765625 0.203125 C 22.835938 0.703125 20.8125 0.953125 18.6875 0.953125 Z M 7.640625 -14.734375 L 26.53125 -14.734375 C 26.289062 -17.003906 25.304688 -18.757812 23.578125 -20 C 21.847656 -21.25 19.703125 -21.875 17.140625 -21.875 C 15.472656 -21.875 13.945312 -21.566406 12.5625 -20.953125 C 11.175781 -20.335938 10.050781 -19.492188 9.1875 -18.421875 C 8.320312 -17.359375 7.804688 -16.128906 7.640625 -14.734375 Z M 7.640625 -14.734375 "/></g></g></g><g fill="#737373" fill-opacity="1"><g transform="translate(198.22729, 263.859823)"><g><path d="M 2.703125 0 L 2.703125 -35.421875 L 31.265625 -35.421875 L 31.265625 -29.96875 L 9.296875 -29.96875 L 9.296875 -19.625 L 28.328125 -19.625 L 28.328125 -14.734375 L 9.296875 -14.734375 L 9.296875 0 Z M 2.703125 0 "/></g></g></g><g fill="#737373" fill-opacity="1"><g transform="translate(230.341855, 263.859823)"><g><path d="M 2.140625 0 L 2.140625 -36.921875 L 8.09375 -36.921875 L 8.09375 0 Z M 2.140625 0 "/></g></g></g><g fill="#737373" fill-opacity="1"><g transform="translate(240.580562, 263.859823)"><g><path d="M 17.828125 0.953125 C 14.535156 0.953125 11.644531 0.382812 9.15625 -0.75 C 6.675781 -1.882812 4.753906 -3.472656 3.390625 -5.515625 C 2.023438 -7.566406 1.34375 -9.957031 1.34375 -12.6875 C 1.34375 -15.445312 2.023438 -17.851562 3.390625 -19.90625 C 4.753906 -21.957031 6.675781 -23.546875 9.15625 -24.671875 C 11.644531 -25.804688 14.535156 -26.375 17.828125 -26.375 C 21.160156 -26.375 24.066406 -25.804688 26.546875 -24.671875 C 29.023438 -23.546875 30.945312 -21.957031 32.3125 -19.90625 C 33.6875 -17.851562 34.375 -15.445312 34.375 -12.6875 C 34.375 -9.957031 33.6875 -7.566406 32.3125 -5.515625 C 30.945312 -3.472656 29.023438 -1.882812 26.546875 -0.75 C 24.066406 0.382812 21.160156 0.953125 17.828125 0.953125 Z M 17.828125 -3.703125 C 21.023438 -3.703125 23.582031 -4.515625 25.5 -6.140625 C 27.414062 -7.773438 28.375 -9.957031 28.375 -12.6875 C 28.375 -15.414062 27.414062 -17.597656 25.5 -19.234375 C 23.582031 -20.867188 21.023438 -21.6875 17.828125 -21.6875 C 14.628906 -21.6875 12.070312 -20.867188 10.15625 -19.234375 C 8.25 -17.597656 7.296875 -15.414062 7.296875 -12.6875 C 7.296875 -9.957031 8.25 -7.773438 10.15625 -6.140625 C 12.070312 -4.515625 14.628906 -3.703125 17.828125 -3.703125 Z M 17.828125 -3.703125 "/></g></g></g><g fill="#737373" fill-opacity="1"><g transform="translate(276.29115, 263.859823)"><g><path d="M 10.890625 0 L 0.25 -25.421875 L 6.4375 -25.421875 L 14.59375 -5.25 L 14.640625 -5.25 L 22.921875 -25.421875 L 29.21875 -25.421875 L 37.5625 -5.09375 L 37.609375 -5.09375 L 45.65625 -25.421875 L 51.84375 -25.421875 L 41.3125 0 L 34.265625 0 L 26.078125 -19.984375 L 25.96875 -19.984375 L 17.9375 0 Z M 10.890625 0 "/></g></g></g></svg>